<?xml version="1.0" standalone="no"?>
<!DOCTYPE svg PUBLIC "-//W3C//DTD SVG 20010904//EN"
 "http://www.w3.org/TR/2001/REC-SVG-20010904/DTD/svg10.dtd">
<svg version="1.0" xmlns="http://www.w3.org/2000/svg"
 width="96.000000pt" height="96.000000pt" viewBox="0 0 96.000000 96.000000"
 preserveAspectRatio="xMidYMid meet">
<metadata>
Created by potrace 1.14, written by Peter Selinger 2001-2017
</metadata>
<g transform="translate(0.000000,96.000000) scale(0.100000,-0.100000)"
fill="#000000" stroke="none">
<path d="M238 860 c-46 -11 -48 -32 -45 -392 2 -305 4 -339 19 -355 16 -15 45
-17 284 -17 l266 -1 19 24 c18 22 19 44 19 361 0 316 -1 339 -19 361 -19 23
-19 23 -269 24 -138 0 -261 -2 -274 -5z m464 -102 c3 -7 4 -29 3 -48 l-2 -35
-206 -3 -207 -2 0 49 0 49 204 1 c156 1 205 -2 208 -11z m-341 -158 c39 -21
16 -90 -30 -90 -36 0 -55 71 -23 89 22 13 29 13 53 1z m160 0 c39 -21 16 -90
-30 -90 -16 0 -41 30 -41 50 0 20 25 50 41 50 6 0 19 -5 30 -10z m168 -9 c25
-25 17 -59 -16 -72 -31 -11 -29 -12 -47 7 -21 21 -20 61 2 73 25 15 40 13 61
-8z m-328 -151 c39 -21 16 -90 -30 -90 -16 0 -41 30 -41 50 0 20 25 50 41 50
6 0 19 -5 30 -10z m160 0 c39 -21 16 -90 -30 -90 -36 0 -55 71 -23 89 22 13
29 13 53 1z m168 -9 c25 -25 17 -59 -16 -72 -31 -11 -29 -12 -47 7 -21 21 -20
61 2 73 25 15 40 13 61 -8z m-168 -151 c26 -14 26 -66 0 -80 -11 -5 -60 -10
-110 -10 -68 0 -93 4 -105 16 -24 23 -20 63 7 74 31 12 184 12 208 0z m160 0
c39 -21 16 -90 -30 -90 -16 0 -41 30 -41 50 0 20 25 50 41 50 6 0 19 -5 30
-10z"/>
</g>
</svg>
